PathFileType  4	(X/Y/Z) C:\Users\antoi\Documents\MyRepositories\mobilecap\ResultsAnalysis
DataRate	CameraRate	NumFrames	NumMarkers	Units	OrigDataRate	OrigDataStartFrame	OrigNumFrames
100.0	100.0	7	51	mm	100.0	821	1312
Frame#	Time	r_knee			r_shank_antsup			r_ankle			r_calc			r_5meta			r_toe			L_knee			L_shank_antsup			L_ankle			L_calc			L_5meta			L_toe			r_sh2			r_sh3			r_sh4			L_sh2			L_sh3			r_thigh1			r_thigh2			r_thigh3			r_thigh4			r_thigh5			L_thigh1			L_thigh2			L_thigh3			L_thigh4			r.ASIS			r.PSIS			L.ASIS			L.PSIS			C7			R_Shoulder			L_Shoulder			R_Sternum			L_Sternum			R_humerus			R_elbow_med			R_elbow_lat			R_forearm			R_wrist_radius			R_wrist_ulna			L_humerus			L_elbow_med			L_elbow_lat			L_forearm			L_wrist_radius			L_wrist_ulna			R_HJC			L_HJC			R_HJC_reg			L_HJC_reg			
		X1	Y1	Z1	X2	Y2	Z2	X3	Y3	Z3	X4	Y4	Z4	X5	Y5	Z5	X6	Y6	Z6	X7	Y7	Z7	X8	Y8	Z8	X9	Y9	Z9	X10	Y10	Z10	X11	Y11	Z11	X12	Y12	Z12	X13	Y13	Z13	X14	Y14	Z14	X15	Y15	Z15	X16	Y16	Z16	X17	Y17	Z17	X18	Y18	Z18	X19	Y19	Z19	X20	Y20	Z20	X21	Y21	Z21	X22	Y22	Z22	X23	Y23	Z23	X24	Y24	Z24	X25	Y25	Z25	X26	Y26	Z26	X27	Y27	Z27	X28	Y28	Z28	X29	Y29	Z29	X30	Y30	Z30	X31	Y31	Z31	X32	Y32	Z32	X33	Y33	Z33	X34	Y34	Z34	X35	Y35	Z35	X36	Y36	Z36	X37	Y37	Z37	X38	Y38	Z38	X39	Y39	Z39	X40	Y40	Z40	X41	Y41	Z41	X42	Y42	Z42	X43	Y43	Z43	X44	Y44	Z44	X45	Y45	Z45	X46	Y46	Z46	X47	Y47	Z47	X48	Y48	Z48	X49	Y49	Z49	X50	Y50	Z50	X51	Y51	Z51	

821	8.20000000	-218.61215	541.27082	-405.41498	-196.75796	457.31187	-385.30894	-291.58678	103.67792	-386.31041	-348.63473	52.40669	-431.81682	-156.59032	42.97867	-328.79528	-116.30405	66.37298	-385.05353	-192.66181	557.75306	-839.89885	-186.78641	441.14751	-874.04188	-293.47438	125.90313	-873.79206	-351.63994	65.94398	-825.63093	-154.45342	65.71603	-946.60073	-119.19310	92.74103	-888.05671	-209.59413	345.06929	-374.35779	-272.58328	467.65031	-369.68994	-290.90642	352.82683	-363.19709	-271.72300	469.12822	-861.53299	-296.18880	350.76342	-872.42327	-205.83168	865.84258	-399.98876	-173.13868	758.77218	-404.37208	-220.06103	718.43102	-374.22314	-314.40005	829.53599	-393.25394	-274.57923	718.95976	-385.49173	-203.22738	886.81540	-792.17977	-157.20455	757.53482	-822.59667	-316.42196	843.68088	-797.96197	-260.15144	718.96047	-827.84096	-195.00215	1024.38668	-460.03350	-371.13567	1109.94800	-535.95876	-201.41267	1022.86087	-719.49476	-373.42455	1106.72662	-639.46004	-238.07044	1590.32393	-575.91746	-186.09718	1540.78683	-404.22333	-173.79458	1555.72434	-737.32054	-94.80165	1510.10355	-541.93916	-91.83222	1506.83986	-597.11795	-243.81844	1287.32376	-293.13628	-297.61864	1199.52791	-359.33560	-281.09092	1207.81676	-277.48528	-230.14867	1057.86788	-248.45815	-196.28826	947.61836	-248.03354	-238.96990	947.89577	-234.57723	-267.72549	1314.85399	-824.06040	-324.88554	1234.71330	-754.87355	-319.08386	1239.13480	-826.45269	-273.09168	1074.56510	-866.77451	-233.96343	983.65031	-871.56527	-272.55129	975.39730	-874.64872	-295.36152	968.77061	-464.88356	-297.95884	966.14817	-695.22189	-286.40145	972.68429	-493.21081	-290.18696	967.35623	-664.38592	
822	8.21000000	-217.29783	539.69399	-406.03945	-195.08382	456.94812	-385.79732	-291.52308	103.63080	-386.47107	-348.69374	52.37744	-431.81240	-156.59925	42.89712	-328.90059	-116.27404	66.32938	-385.09095	-193.48405	557.08336	-839.61072	-187.51767	440.49004	-873.90361	-293.96755	125.51110	-872.69257	-351.29154	64.12560	-825.06527	-155.41907	68.24560	-948.34802	-119.75022	94.51549	-889.83658	-208.54446	344.76345	-374.53425	-270.76255	467.41069	-370.19646	-289.70925	352.96724	-363.27695	-272.41548	468.32476	-861.26638	-296.75231	350.09780	-872.18021	-206.28658	864.90449	-400.86313	-173.00418	758.50687	-405.01627	-219.57618	717.95517	-374.83657	-314.78721	828.25243	-394.06920	-274.16439	718.09542	-386.18642	-204.59566	886.00005	-792.42664	-158.14386	756.94998	-822.04487	-317.82922	843.18986	-798.92586	-260.97566	718.31068	-828.07067	-196.42375	1023.22588	-461.02787	-372.25417	1109.48778	-536.08776	-203.12191	1022.13075	-720.01294	-374.58686	1106.43494	-639.72462	-235.92650	1588.97777	-575.62882	-184.28811	1538.86914	-404.10488	-171.75691	1554.24849	-737.15820	-93.05551	1507.90251	-541.75552	-90.13663	1504.75658	-596.98086	-242.88818	1285.60205	-293.06560	-296.78819	1197.74357	-359.33636	-280.42889	1206.17429	-277.47056	-229.47709	1056.27170	-248.26036	-195.49958	946.12420	-247.68113	-238.35387	946.30627	-234.26404	-267.07894	1314.18531	-824.50462	-325.23374	1234.54411	-755.90595	-318.99848	1238.91371	-827.20108	-273.91524	1074.06160	-867.49972	-235.22633	982.89738	-872.12424	-273.81059	974.98917	-875.54327	-296.86822	967.92073	-465.52158	-299.84172	965.72909	-695.85985	-288.01762	971.98128	-494.18222	-291.86379	966.94775	-665.05339	
823	8.22000000	-216.77729	537.57044	-406.43140	-193.43490	456.59368	-386.25705	-291.54153	103.66945	-386.54953	-348.73129	52.38480	-431.82206	-156.63335	42.79810	-328.94750	-116.26282	66.27627	-385.08906	-194.43111	556.23811	-839.62913	-188.05186	439.67988	-874.01008	-294.20409	124.68191	-872.08458	-350.63270	62.09096	-825.15037	-155.96999	70.45386	-950.15515	-119.99327	95.99813	-891.60774	-207.48444	344.53382	-374.57028	-268.96907	467.15030	-370.55423	-288.47587	352.72227	-363.39262	-273.06418	467.10433	-861.31947	-297.13856	348.98122	-872.24614	-206.87471	864.32735	-401.80465	-172.80705	758.32976	-405.73542	-219.09161	717.49909	-375.53061	-315.07283	827.15958	-394.74036	-273.68689	717.17080	-386.74777	-206.61181	884.20631	-792.95007	-159.29717	756.08765	-821.82172	-318.40655	841.85295	-798.11974	-261.99649	717.36409	-828.15215	-198.10699	1022.09547	-461.92622	-373.39986	1108.85346	-536.86146	-204.75166	1020.98880	-720.33744	-375.75850	1106.01630	-640.41632	-233.73634	1587.53366	-575.58713	-182.44686	1536.76532	-404.05588	-169.62826	1552.60654	-737.18421	-91.26829	1505.60975	-541.73634	-88.40902	1502.54299	-596.94990	-241.90508	1283.75659	-293.20494	-296.23271	1195.92759	-359.50945	-279.69663	1204.36767	-277.56706	-228.81755	1054.47364	-248.30425	-194.74517	944.37161	-247.67937	-237.60415	944.55844	-234.14984	-266.40702	1313.42066	-825.19848	-325.53560	1234.06316	-757.13089	-318.83336	1238.50948	-828.16920	-274.60202	1073.38169	-868.44329	-236.48559	981.99497	-872.81283	-275.06198	974.30485	-876.36772	-298.70840	967.13155	-466.19775	-301.60554	964.95112	-696.53687	-289.68864	971.03475	-495.07439	-293.57237	966.36383	-665.57544	
824	8.23000000	-215.79833	536.30021	-406.89423	-191.80807	456.22359	-386.69399	-291.47730	103.82721	-386.59877	-348.71142	52.44154	-431.84070	-156.66156	42.73522	-328.92273	-116.27852	66.20057	-385.05011	-195.41308	555.17942	-839.81030	-188.57974	438.59868	-874.10366	-294.22985	123.47809	-872.33298	-349.79757	59.90468	-825.86451	-156.03698	72.04904	-951.88889	-119.95225	97.08820	-893.07488	-206.31141	344.32006	-374.70505	-267.28541	467.11801	-370.84127	-287.24712	352.57578	-363.70640	-273.73297	465.60884	-861.64791	-297.43912	347.32026	-872.59106	-207.76396	864.26888	-402.71765	-172.61255	758.19941	-406.45391	-218.83890	717.44573	-375.93593	-315.50186	826.11722	-395.21162	-273.24728	716.21798	-387.28501	-208.63672	882.34346	-793.32553	-160.62262	754.98656	-821.87307	-318.40989	839.68691	-795.94162	-263.25062	716.15081	-828.37619	-200.11223	1021.06169	-462.54175	-374.58901	1108.10113	-538.07068	-206.28745	1019.53420	-720.75993	-376.87898	1105.40553	-641.48176	-231.48709	1585.94307	-575.74974	-180.59588	1534.49627	-404.22319	-167.46660	1550.83328	-737.30434	-89.45519	1503.16697	-541.90064	-86.63574	1500.15440	-597.05143	-240.89029	1281.80951	-293.48837	-295.37109	1194.01460	-359.85531	-278.95737	1202.38364	-277.85410	-228.08393	1052.52865	-248.50159	-193.98523	942.40572	-247.96026	-236.76966	942.51650	-234.56282	-265.65584	1312.51510	-826.16761	-325.81895	1233.45358	-758.57959	-318.61687	1237.98487	-829.49316	-275.12648	1072.54551	-869.54960	-237.66242	980.96995	-873.65291	-276.23417	973.41396	-877.33614	-300.82961	966.40687	-466.89747	-303.23995	963.87660	-697.23861	-291.57245	969.92887	-495.78944	-295.34560	965.48805	-666.16536	
825	8.24000000	-213.87237	536.09403	-407.42656	-190.11194	455.85167	-386.96536	-291.29555	104.01827	-386.59686	-348.65406	52.51242	-431.86875	-156.68285	42.68702	-328.86936	-116.30866	66.12540	-385.02501	-196.47171	553.79737	-839.93464	-189.18952	437.16249	-874.08744	-294.05072	121.97353	-873.07987	-348.87883	57.28030	-826.90339	-155.55694	72.97054	-953.14324	-119.57575	97.65668	-893.88280	-205.04098	344.08214	-374.98200	-265.63311	467.42555	-371.22679	-285.97003	352.75986	-364.01637	-274.43487	463.94422	-862.26453	-297.67738	345.39626	-873.33978	-208.84995	863.97259	-403.53659	-172.54653	757.91997	-407.23507	-218.74683	717.56181	-376.12887	-316.09542	824.76726	-395.79017	-272.78133	715.19797	-387.82725	-210.32022	880.90287	-793.66415	-162.18514	753.63764	-822.09899	-319.15260	837.68717	-794.96668	-264.81821	714.66107	-828.86723	-202.38743	1019.99988	-463.02636	-375.82939	1107.18256	-539.41338	-207.69580	1017.95341	-721.67117	-377.96405	1104.53941	-642.75339	-229.18721	1584.11841	-575.90476	-178.73401	1532.03205	-404.64644	-165.32517	1548.85587	-737.41009	-87.62662	1500.48192	-542.18422	-84.83439	1497.58209	-597.40986	-239.94390	1279.62449	-293.88552	-294.13425	1191.72949	-360.44311	-278.28826	1200.17808	-278.38566	-227.29378	1050.36600	-248.98701	-193.14868	940.30688	-248.40947	-235.95644	940.20719	-235.34028	-264.87015	1311.43577	-827.22091	-325.94308	1232.75790	-760.09166	-318.35140	1237.34781	-831.05761	-275.60601	1071.55770	-870.80189	-238.71015	979.83495	-874.79866	-277.30721	972.43761	-878.71401	-303.04404	965.54190	-467.77726	-304.78227	962.64600	-698.12051	-293.66972	968.66139	-496.50719	-297.19424	964.29600	-667.16203	
826	8.25000000	-211.55770	535.97927	-407.85591	-188.23424	455.43175	-387.17321	-291.12252	104.11153	-386.60878	-348.61094	52.56032	-431.88796	-156.69660	42.63699	-328.82942	-116.33099	66.06249	-385.03837	-197.77714	552.04904	-840.09434	-189.91124	435.37880	-874.21334	-293.51670	120.09808	-873.98033	-347.75393	54.15404	-828.09529	-154.49086	73.26055	-953.69120	-118.81247	97.75849	-894.13387	-203.66579	343.76790	-375.25787	-263.63264	467.76435	-371.81853	-284.59356	352.89332	-364.39087	-275.25669	461.98645	-863.09402	-297.99220	343.34831	-874.29231	-209.91457	863.20671	-404.26471	-172.55063	757.39964	-408.11002	-218.44936	717.18560	-376.57556	-316.62973	823.01920	-396.65406	-272.19529	714.02691	-388.33291	-212.07927	879.33613	-794.34924	-163.95403	752.02572	-822.68532	-320.95156	836.10159	-795.79029	-266.63844	712.92349	-829.53456	-204.59181	1018.52468	-463.69107	-377.13669	1106.10009	-540.77457	-208.97672	1016.13542	-722.81727	-379.04684	1103.40009	-644.14834	-226.88300	1582.03734	-576.03724	-176.84601	1529.31305	-405.18778	-163.11897	1546.64401	-737.64097	-85.77713	1497.49922	-542.56697	-82.97950	1494.79710	-597.95540	-239.07714	1277.11070	-294.50489	-293.05262	1189.11925	-361.31901	-277.66280	1197.75311	-279.09477	-226.55373	1047.91490	-249.77444	-192.27529	938.05535	-248.98623	-235.14961	937.70956	-236.10027	-264.11030	1310.14202	-828.24252	-325.80140	1231.77439	-761.50253	-318.00353	1236.48305	-832.66803	-276.10776	1070.41105	-872.21746	-239.68211	978.53985	-876.25542	-278.34363	971.33229	-880.33632	-305.23915	964.33366	-468.85860	-306.31581	961.21288	-699.20279	-295.82979	967.26192	-497.42537	-298.98847	962.79570	-668.39316	
827	8.26000000	-209.16300	535.50209	-408.30840	-186.11988	454.85141	-387.63777	-291.03259	104.09766	-386.82780	-348.59449	52.58777	-431.93573	-156.69782	42.61156	-328.82916	-116.32577	65.98909	-385.07674	-199.47125	550.02436	-840.49279	-190.88133	433.26582	-874.56905	-292.56273	117.66489	-874.89143	-346.46916	51.09979	-829.58119	-152.96548	72.56204	-953.76011	-117.81888	97.27688	-894.18340	-202.12542	343.32455	-375.53827	-260.92894	467.46002	-372.82078	-283.04306	352.79219	-364.93037	-276.35861	459.51916	-863.93054	-298.48328	340.84844	-875.14045	-211.00952	862.44278	-405.01623	-172.47085	756.71147	-409.03623	-217.91452	716.32011	-377.30857	-317.08391	821.05552	-397.56317	-271.54163	712.61818	-388.90361	-214.13048	877.54948	-795.27977	-165.85192	750.07051	-823.54111	-322.92502	834.21881	-796.70616	-268.58894	710.99637	-830.33005	-206.39738	1016.08220	-464.77369	-378.54789	1104.89189	-542.18143	-210.27179	1013.88769	-723.68897	-380.10533	1102.02033	-645.72399	-224.58641	1579.68389	-576.42236	-174.93988	1526.30923	-405.81987	-160.73820	1544.24699	-738.20844	-83.91003	1494.24617	-543.16325	-81.05242	1491.71928	-598.53961	-238.22135	1274.30472	-295.39677	-292.32497	1186.41291	-362.38235	-277.05472	1195.11594	-279.98348	-225.93354	1045.20869	-250.70100	-191.49010	935.50810	-249.76897	-234.35633	935.00376	-236.91794	-263.31192	1308.60512	-829.49489	-325.65236	1230.49385	-763.04499	-317.56195	1235.32696	-834.32218	-276.55866	1069.10013	-873.86266	-240.64392	976.96906	-877.83202	-279.37138	969.99467	-882.01458	-307.49595	962.57376	-470.13940	-307.99237	959.48639	-700.48565	-298.05299	965.73370	-498.71561	-300.62434	960.99677	-669.54012	
